<svg id="Capa_9" data-name="Capa 9" xmlns="http://www.w3.org/2000/svg" xmlns:xlink="http://www.w3.org/1999/xlink" viewBox="0 0 399.09 110"><defs><style>.cls-1{fill:none;}.cls-2{fill:#003d4c;}.cls-3{fill:#f9b200;}.cls-4{fill:#fdfdfd;}.cls-5{clip-path:url(#clip-path);}.cls-6{fill:url(#Degradado_sin_nombre_9);}.cls-7{clip-path:url(#clip-path-2);}.cls-8{fill:url(#Degradado_sin_nombre_9-2);}.cls-9{clip-path:url(#clip-path-3);}.cls-10{fill:url(#Degradado_sin_nombre_9-3);}.cls-11{clip-path:url(#clip-path-4);}.cls-12{fill:url(#Degradado_sin_nombre_9-4);}.cls-13{clip-path:url(#clip-path-5);}.cls-14{fill:url(#Degradado_sin_nombre_9-5);}.cls-15{clip-path:url(#clip-path-6);}.cls-16{fill:url(#Degradado_sin_nombre_9-6);}</style><clipPath id="clip-path" transform="translate(-0.57 0)"><path class="cls-1" d="M345.78,32.36a2,2,0,1,0,2-2,2,2,0,0,0-2,2"/></clipPath><linearGradient id="Degradado_sin_nombre_9" x1="-110.46" y1="584.82" x2="-109.8" y2="584.82" gradientTransform="matrix(6, 0, 0, -6, 1007.99, 3541.27)" gradientUnits="userSpaceOnUse"><stop offset="0" stop-color="#f9b200"/><stop offset="1" stop-color="#fbcb89"/></linearGradient><clipPath id="clip-path-2" transform="translate(-0.57 0)"><path class="cls-1" d="M355.09,32.36a2,2,0,1,0,2-2,2,2,0,0,0-2,2"/></clipPath><linearGradient id="Degradado_sin_nombre_9-2" x1="-111.24" y1="584.82" x2="-110.58" y2="584.82" gradientTransform="matrix(6, 0, 0, -6, 1021.99, 3541.27)" xlink:href="#Degradado_sin_nombre_9"/><clipPath id="clip-path-3" transform="translate(-0.57 0)"><path class="cls-1" d="M364.4,32.36a2,2,0,1,0,2-2,2,2,0,0,0-2,2"/></clipPath><linearGradient id="Degradado_sin_nombre_9-3" x1="-112.03" y1="584.82" x2="-111.36" y2="584.82" gradientTransform="matrix(6, 0, 0, -6, 1035.99, 3541.27)" xlink:href="#Degradado_sin_nombre_9"/><clipPath id="clip-path-4" transform="translate(-0.57 0)"><path class="cls-1" d="M345.78,23.72a2,2,0,1,0,2-2,2,2,0,0,0-2,2"/></clipPath><linearGradient id="Degradado_sin_nombre_9-4" x1="-110.46" y1="584.09" x2="-109.8" y2="584.09" gradientTransform="matrix(6, 0, 0, -6, 1007.99, 3528.27)" xlink:href="#Degradado_sin_nombre_9"/><clipPath id="clip-path-5" transform="translate(-0.57 0)"><path class="cls-1" d="M355.09,23.72a2,2,0,1,0,2-2,2,2,0,0,0-2,2"/></clipPath><linearGradient id="Degradado_sin_nombre_9-5" x1="-111.24" y1="584.09" x2="-110.58" y2="584.09" gradientTransform="matrix(6, 0, 0, -6, 1021.99, 3528.27)" xlink:href="#Degradado_sin_nombre_9"/><clipPath id="clip-path-6" transform="translate(-0.57 0)"><path class="cls-1" d="M364.4,23.72a2,2,0,1,0,2-2,2,2,0,0,0-2,2"/></clipPath><linearGradient id="Degradado_sin_nombre_9-6" x1="-112.03" y1="584.09" x2="-111.36" y2="584.09" gradientTransform="matrix(6, 0, 0, -6, 1035.99, 3528.27)" xlink:href="#Degradado_sin_nombre_9"/></defs><title>header</title><path class="cls-2" d="M399.66,0H.57V110C10,102.82,23.2,82.68,81.47,82.68c66.81,0,123.93,27.16,164.88,19,36.81-7.32,134.06-49,153.31-57.33Z" transform="translate(-0.57 0)"/><polygon class="cls-3" points="47.79 31.52 42.16 31.52 42.16 37.16 39.34 34.34 39.34 28.71 44.98 28.71 47.79 31.52"/><polygon class="cls-3" points="22.61 31.52 28.25 31.52 28.25 37.16 31.07 34.34 31.07 28.71 25.43 28.71 22.61 31.52"/><polygon class="cls-3" points="44.1 27.82 40.39 27.82 35.2 22.63 34.76 23.07 30.02 27.82 26.31 27.82 27.72 26.41 34.76 19.37 35.2 18.92 35.65 19.37 35.65 19.37 42.69 26.41 44.1 27.82"/><path class="cls-4" d="M65.45,29.14v5H63V29.5A1.34,1.34,0,0,0,61.59,28c-.9,0-1.52.52-1.52,1.68v4.45H57.62V26h2.45v.76a2.8,2.8,0,0,1,2.33-1,3,3,0,0,1,3.05,3.37" transform="translate(-0.57 0)"/><path class="cls-4" d="M69.91,28.35v2.88c0,.7.6.77,1.68.7v2.22c-3.2.33-4.13-.63-4.13-2.92V28.35h-1.3V26h1.3V24.45l2.45-.74V26h1.68v2.35Z" transform="translate(-0.57 0)"/><rect class="cls-4" x="72.3" y="26" width="2.45" height="8.16"/><path class="cls-4" d="M85,26v8.15H82.59v-.76a3.05,3.05,0,0,1-2.43,1,4.09,4.09,0,0,1-3.9-4.31,4.09,4.09,0,0,1,3.9-4.3,3.05,3.05,0,0,1,2.43,1V26Zm-2.45,4.07a1.94,1.94,0,1,0-1.94,2,1.86,1.86,0,0,0,1.94-2" transform="translate(-0.57 0)"/><polygon class="cls-4" points="53.23 23.45 53.23 34.15 55.84 34.15 55.84 22.67 53.23 23.45"/><rect class="cls-4" x="72.3" y="22.67" width="2.45" height="2.45"/><g class="cls-5"><rect class="cls-6" x="345.21" y="30.37" width="3.99" height="3.99"/></g><g class="cls-7"><rect class="cls-8" x="354.52" y="30.37" width="3.99" height="3.99"/></g><g class="cls-9"><rect class="cls-10" x="363.84" y="30.37" width="3.99" height="3.99"/></g><g class="cls-11"><rect class="cls-12" x="345.21" y="21.72" width="3.99" height="3.99"/></g><g class="cls-13"><rect class="cls-14" x="354.52" y="21.72" width="3.99" height="3.99"/></g><g class="cls-15"><rect class="cls-16" x="363.84" y="21.72" width="3.99" height="3.99"/></g></svg>