<svg id="Capa_7" data-name="Capa 7" xmlns="http://www.w3.org/2000/svg" xmlns:xlink="http://www.w3.org/1999/xlink" viewBox="0 0 308.82 307"><defs><style>.cls-1{clip-path:url(#clip-path);}.cls-2{fill:#003d4c;}</style><clipPath id="clip-path" transform="translate(-50.76 -46)"/></defs><title>instagram-logo</title><g class="cls-1"><path class="cls-2" d="M153.1,199.51c0-29.24,21.92-51.17,51.17-51.17s51.17,21.93,51.17,51.17-21.93,51.17-51.17,51.17-51.17-22-51.17-51.17m-27.4,0a78.57,78.57,0,1,0,78.57-78.57,78,78,0,0,0-78.57,78.57m142.53-82.23c0,10.95,7.32,18.27,16.45,18.27a18.28,18.28,0,0,0,0-36.56c-9.13,1.84-16.45,9.13-16.45,18.29M142.15,323.76c-14.64,0-23.77-3.64-29.25-5.45-7.31-3.69-12.79-5.51-16.45-11-5.47-5.45-7.29-10.95-11-16.45C83.66,285.4,80,276.27,80,261.63V199.51c0-40.22,0-45.69,1.84-62.14,0-14.61,3.64-23.75,5.48-29.25s3.66-11,9.13-16.42,11-7.32,16.45-11,14.61-5.48,29.25-5.48c16.42,0,21.92-1.84,62.12-1.84s45.69,0,62.14,1.84c14.59,0,23.75,3.66,29.22,5.48,7.32,3.66,12.8,5.48,16.46,11,5.5,5.47,7.31,11,11,16.42,1.84,5.5,5.5,14.64,5.5,29.25,0,16.45,1.81,20.11,1.81,62.14s0,45.67-1.81,62.12c0,14.64-3.66,23.77-5.5,29.22-3.64,7.32-5.45,12.82-11,16.45-5.5,5.5-11,7.32-16.46,11-5.47,1.81-14.63,5.45-29.22,5.45-16.45,0-20.11,1.84-62.14,1.84s-45.7-1.84-62.12-1.84m0-275.92c-16.45,0-27.43,3.64-38.38,9.14-9.16,1.81-18.29,7.29-25.59,14.61A90.4,90.4,0,0,0,59.89,99c-3.63,11-5.45,22-7.29,38.38,0,16.45-1.84,21.92-1.84,62.14s0,47.49,1.84,62.12c0,16.46,3.66,27.41,7.29,38.38,3.68,9.14,7.32,18.3,18.29,27.43S94.61,342,105.59,343.87c9.13,3.65,20.11,5.47,38.37,7.31,16.45,0,21.93,1.82,62.12,1.82s47.52,0,62.15-1.82c16.45,0,27.4-3.66,38.36-7.31A109.76,109.76,0,0,0,334,327.44c7.29-7.32,14.61-16.45,16.43-27.43,3.68-9.16,5.5-20.11,7.32-38.38,0-16.45,1.81-21.92,1.81-62.12s0-47.53-1.81-62.14c0-16.43-3.64-27.41-7.32-38.38-5.45-9.14-9.14-16.43-18.27-27.4-7.29-7.32-16.45-14.61-27.4-16.46s-20.09-5.47-38.36-7.29c-16.45,0-22-1.84-62.14-1.84s-45.7,0-62.12,1.84" transform="translate(-50.76 -46)"/></g></svg>