<svg id="Capa_7" data-name="Capa 7" xmlns="http://www.w3.org/2000/svg" xmlns:xlink="http://www.w3.org/1999/xlink" viewBox="0 0 274 263.14"><defs><style>.cls-1{clip-path:url(#clip-path);}.cls-2{fill:#003d4c;}</style><clipPath id="clip-path" transform="translate(-72 -55.22)"/></defs><title>linkedin-logo</title><g class="cls-1"><path class="cls-2" d="M72,86.17c0-9.28,3.1-15.48,9.3-21.68s13.91-9.27,24.75-9.27A38.15,38.15,0,0,1,129.28,63q9.3,9.3,9.28,23.22a30.55,30.55,0,0,1-9.28,21.67c-6.2,6.2-13.94,9.29-24.77,9.29q-14,0-23.21-9.29A30.57,30.57,0,0,1,72,86.17m3.1,54.18h58.82v178H75.1Zm92.89,178h58.79V219.28c0-6.2,0-10.82,1.56-13.94a56.44,56.44,0,0,1,10.84-15.47c4.64-4.62,10.83-6.18,18.57-6.18,20.11,0,29.41,13.91,29.41,40.24v94.43H346V216.2q0-39.49-18.59-60.36C315,141.91,298,135.71,277.86,135.71c-23.21,0-40.22,9.27-54.16,29.41V140.35H168v178Z" transform="translate(-72 -55.22)"/></g></svg>