<svg id="Capa_8" data-name="Capa 8" xmlns="http://www.w3.org/2000/svg" viewBox="0 0 390.08 114.97"><defs><style>.cls-1{fill:#f9b200;}.cls-2{fill:#fdfdfd;}</style></defs><title>logo</title><polygon class="cls-1" points="158.77 79.45 123.25 79.45 123.25 114.97 105.48 97.21 105.48 61.7 141.01 61.7 158.77 79.45"/><polygon class="cls-1" points="0 79.45 35.52 79.45 35.52 114.97 53.28 97.21 53.28 61.7 17.76 61.7 0 79.45"/><polygon class="cls-1" points="135.47 56.09 112.1 56.09 79.38 23.37 76.58 26.18 46.66 56.09 23.3 56.09 32.18 47.2 76.58 2.81 79.38 0 82.18 2.81 82.19 2.81 126.59 47.2 135.47 56.09"/><path class="cls-2" d="M271.58,231.48v31.58H256.14V233.74c0-6.37-4-9.36-8.95-9.36-5.65,0-9.56,3.3-9.56,10.6v28.08H222.2V211.63h15.43v4.83c2.77-3.8,7.92-6.28,14.71-6.28,10.39,0,19.24,7.41,19.24,21.3" transform="translate(-5 -167.03)"/><path class="cls-2" d="M299.66,226.44v18.21c0,4.42,3.8,4.83,10.59,4.42v14c-20.16,2.06-26-4-26-18.41V226.44H276V211.62h8.23v-9.77l15.43-4.62v14.39h10.59v14.82Z" transform="translate(-5 -167.03)"/><rect class="cls-2" x="313.3" y="44.6" width="15.43" height="51.44"/><path class="cls-2" d="M395.08,211.63v51.43H379.65v-4.83c-3.4,3.91-8.44,6.27-15.33,6.27-13.48,0-24.59-11.83-24.59-27.16s11.11-27.15,24.59-27.15c6.89,0,11.93,2.36,15.33,6.27v-4.83Zm-15.43,25.71c0-7.71-5.15-12.55-12.24-12.55s-12.24,4.84-12.24,12.55,5.14,12.55,12.24,12.55,12.24-4.83,12.24-12.55" transform="translate(-5 -167.03)"/><polygon class="cls-2" points="193.02 28.57 193.02 96.03 209.48 96.03 209.48 23.64 193.02 28.57"/><rect class="cls-2" x="313.3" y="23.64" width="15.43" height="15.43"/></svg>