<svg id="Capa_2" data-name="Capa 2" xmlns="http://www.w3.org/2000/svg" xmlns:xlink="http://www.w3.org/1999/xlink" viewBox="0 0 368 205.65"><defs><style>.cls-1{fill:none;}.cls-2{clip-path:url(#clip-path);}.cls-3{fill:url(#Degradado_sin_nombre_9);}.cls-4{clip-path:url(#clip-path-2);}.cls-5{fill:url(#Degradado_sin_nombre_9-2);}.cls-6{clip-path:url(#clip-path-3);}.cls-7{fill:url(#Degradado_sin_nombre_9-3);}.cls-8{clip-path:url(#clip-path-4);}.cls-9{fill:url(#Degradado_sin_nombre_9-4);}.cls-10{clip-path:url(#clip-path-5);}.cls-11{fill:url(#Degradado_sin_nombre_9-5);}.cls-12{clip-path:url(#clip-path-6);}.cls-13{fill:url(#Degradado_sin_nombre_9-6);}</style><clipPath id="clip-path" transform="translate(-16 -97.25)"><path class="cls-1" d="M16,270.45A32.47,32.47,0,1,0,48.47,238,32.47,32.47,0,0,0,16,270.45"/></clipPath><linearGradient id="Degradado_sin_nombre_9" x1="-165.43" y1="545.14" x2="-154.6" y2="545.14" gradientTransform="matrix(6, 0, 0, -6, 992.55, 3444.01)" gradientUnits="userSpaceOnUse"><stop offset="0" stop-color="#f9b200"/><stop offset="1" stop-color="#fbcb89"/></linearGradient><clipPath id="clip-path-2" transform="translate(-16 -97.25)"><path class="cls-1" d="M167.52,270.45A32.48,32.48,0,1,0,200,238a32.47,32.47,0,0,0-32.47,32.49"/></clipPath><linearGradient id="Degradado_sin_nombre_9-2" x1="-142.51" y1="545.14" x2="-131.68" y2="545.14" gradientTransform="matrix(6, 0, 0, -6, 1006.55, 3444.01)" xlink:href="#Degradado_sin_nombre_9"/><clipPath id="clip-path-3" transform="translate(-16 -97.25)"><path class="cls-1" d="M319.07,270.45A32.47,32.47,0,1,0,351.53,238a32.46,32.46,0,0,0-32.46,32.49"/></clipPath><linearGradient id="Degradado_sin_nombre_9-3" x1="-119.58" y1="545.14" x2="-108.76" y2="545.14" gradientTransform="matrix(6, 0, 0, -6, 1020.55, 3444.01)" xlink:href="#Degradado_sin_nombre_9"/><clipPath id="clip-path-4" transform="translate(-16 -97.25)"><path class="cls-1" d="M16,129.72A32.47,32.47,0,1,0,48.47,97.25,32.49,32.49,0,0,0,16,129.72"/></clipPath><linearGradient id="Degradado_sin_nombre_9-4" x1="-165.43" y1="566.42" x2="-154.6" y2="566.42" gradientTransform="matrix(6, 0, 0, -6, 992.55, 3431.01)" xlink:href="#Degradado_sin_nombre_9"/><clipPath id="clip-path-5" transform="translate(-16 -97.25)"><path class="cls-1" d="M167.52,129.72A32.48,32.48,0,1,0,200,97.25a32.49,32.49,0,0,0-32.47,32.47"/></clipPath><linearGradient id="Degradado_sin_nombre_9-5" x1="-142.51" y1="566.42" x2="-131.68" y2="566.42" gradientTransform="matrix(6, 0, 0, -6, 1006.55, 3431.01)" xlink:href="#Degradado_sin_nombre_9"/><clipPath id="clip-path-6" transform="translate(-16 -97.25)"><path class="cls-1" d="M319.07,129.72a32.47,32.47,0,1,0,32.46-32.47,32.48,32.48,0,0,0-32.46,32.47"/></clipPath><linearGradient id="Degradado_sin_nombre_9-6" x1="-119.58" y1="566.42" x2="-108.76" y2="566.42" gradientTransform="matrix(6, 0, 0, -6, 1020.55, 3431.01)" xlink:href="#Degradado_sin_nombre_9"/></defs><title>points-top</title><g class="cls-2"><rect class="cls-3" y="140.71" width="64.93" height="64.94"/></g><g class="cls-4"><rect class="cls-5" x="151.52" y="140.71" width="64.96" height="64.94"/></g><g class="cls-6"><rect class="cls-7" x="303.07" y="140.71" width="64.93" height="64.94"/></g><g class="cls-8"><rect class="cls-9" width="64.93" height="64.95"/></g><g class="cls-10"><rect class="cls-11" x="151.52" width="64.96" height="64.95"/></g><g class="cls-12"><rect class="cls-13" x="303.07" width="64.93" height="64.95"/></g></svg>