<svg id="Capa_3" data-name="Capa 3" xmlns="http://www.w3.org/2000/svg" xmlns:xlink="http://www.w3.org/1999/xlink" viewBox="0 0 348.36 61.48"><defs><style>.cls-1{fill:none;}.cls-2{clip-path:url(#clip-path);}.cls-3{fill:url(#Degradado_sin_nombre_9);}.cls-4{clip-path:url(#clip-path-2);}.cls-5{fill:url(#Degradado_sin_nombre_9-2);}.cls-6{clip-path:url(#clip-path-3);}.cls-7{fill:url(#Degradado_sin_nombre_9-3);}</style><clipPath id="clip-path" transform="translate(-25.55 -162.34)"><path class="cls-1" d="M25.55,193.08a30.74,30.74,0,1,0,30.74-30.74,30.74,30.74,0,0,0-30.74,30.74"/></clipPath><linearGradient id="Degradado_sin_nombre_9" x1="-124.5" y1="609.58" x2="-114.26" y2="609.58" gradientTransform="matrix(6, 0, 0, -6, 747, 3688.24)" gradientUnits="userSpaceOnUse"><stop offset="0" stop-color="#f9b200"/><stop offset="1" stop-color="#fbcb89"/></linearGradient><clipPath id="clip-path-2" transform="translate(-25.55 -162.34)"><path class="cls-1" d="M169,193.08a30.74,30.74,0,1,0,30.73-30.74A30.73,30.73,0,0,0,169,193.08"/></clipPath><linearGradient id="Degradado_sin_nombre_9-2" x1="-102.93" y1="609.58" x2="-92.68" y2="609.58" gradientTransform="matrix(6, 0, 0, -6, 761, 3688.24)" xlink:href="#Degradado_sin_nombre_9"/><clipPath id="clip-path-3" transform="translate(-25.55 -162.34)"><path class="cls-1" d="M312.43,193.08a30.74,30.74,0,1,0,30.75-30.74,30.75,30.75,0,0,0-30.75,30.74"/></clipPath><linearGradient id="Degradado_sin_nombre_9-3" x1="-81.35" y1="609.58" x2="-71.11" y2="609.58" gradientTransform="matrix(6, 0, 0, -6, 775, 3688.24)" xlink:href="#Degradado_sin_nombre_9"/></defs><title>points-center</title><g class="cls-2"><rect class="cls-3" width="61.47" height="61.48"/></g><g class="cls-4"><rect class="cls-5" x="143.45" width="61.48" height="61.48"/></g><g class="cls-6"><rect class="cls-7" x="286.88" width="61.48" height="61.48"/></g></svg>