<svg id="Capa_4" data-name="Capa 4" xmlns="http://www.w3.org/2000/svg" xmlns:xlink="http://www.w3.org/1999/xlink" viewBox="0 0 441.79 397.08"><defs><style>.cls-1{fill:none;}.cls-2{clip-path:url(#clip-path);}.cls-3{fill:#fff;}.cls-4{opacity:0.53;}.cls-5{clip-path:url(#clip-path-2);}.cls-6{fill:#f9b200;}.cls-7{clip-path:url(#clip-path-3);}.cls-8{fill:url(#Degradado_sin_nombre_18);}.cls-9{opacity:0.43;}.cls-10{clip-path:url(#clip-path-5);}.cls-11{clip-path:url(#clip-path-6);}.cls-12{fill:url(#Degradado_sin_nombre_11);}.cls-13{clip-path:url(#clip-path-8);}.cls-14{clip-path:url(#clip-path-9);}.cls-15{fill:url(#Degradado_sin_nombre_22);}.cls-16{clip-path:url(#clip-path-10);}.cls-17{fill:url(#Degradado_sin_nombre_13);}.cls-18{opacity:0.5;}.cls-19{clip-path:url(#clip-path-12);}.cls-20{opacity:0.8;}.cls-21{clip-path:url(#clip-path-13);}.cls-22{clip-path:url(#clip-path-14);}.cls-23{clip-path:url(#clip-path-15);}.cls-24{fill:url(#Degradado_sin_nombre_22-2);}.cls-25{clip-path:url(#clip-path-16);}.cls-26{fill:url(#Degradado_sin_nombre_26);}.cls-27{fill:#218a99;}.cls-28{clip-path:url(#clip-path-18);}.cls-29{fill:url(#Degradado_sin_nombre_26-2);}.cls-30{clip-path:url(#clip-path-20);}.cls-31{fill:url(#Degradado_sin_nombre_26-3);}.cls-32{clip-path:url(#clip-path-21);}.cls-33{fill:url(#Degradado_sin_nombre_18-2);}.cls-34{clip-path:url(#clip-path-22);}.cls-35{fill:url(#Degradado_sin_nombre_19);}.cls-36{clip-path:url(#clip-path-23);}.cls-37{fill:url(#Degradado_sin_nombre_26-4);}.cls-38{clip-path:url(#clip-path-24);}.cls-39{fill:url(#Degradado_sin_nombre_26-5);}.cls-40{clip-path:url(#clip-path-25);}.cls-41{fill:url(#Degradado_sin_nombre_22-3);}.cls-42{clip-path:url(#clip-path-26);}.cls-43{fill:url(#Degradado_sin_nombre_26-6);}.cls-44{clip-path:url(#clip-path-27);}.cls-45{fill:url(#Degradado_sin_nombre_26-7);}.cls-46{clip-path:url(#clip-path-28);}.cls-47{fill:url(#Degradado_sin_nombre_26-8);}.cls-48{clip-path:url(#clip-path-29);}.cls-49{fill:url(#Degradado_sin_nombre_26-9);}.cls-50{clip-path:url(#clip-path-31);}.cls-51{fill:#e74128;}</style><clipPath id="clip-path" transform="translate(-0.57 -12.61)"><rect class="cls-1" x="-273" y="-78.43" width="967.76" height="1346.43"/></clipPath><clipPath id="clip-path-2" transform="translate(-0.57 -12.61)"><rect class="cls-1" x="49.96" y="41.4" width="310.98" height="312.43"/></clipPath><clipPath id="clip-path-3" transform="translate(-0.57 -12.61)"><path class="cls-1" d="M361.35,153.34c-8.3,16-31.39,57.19-57.63,76.15-42.73,30.86-78.79,87.92-63.2,124.63,0,0,125.55,3,124.21-200a1.78,1.78,0,0,0-1.82-1.78,1.73,1.73,0,0,0-1.56,1"/></clipPath><linearGradient id="Degradado_sin_nombre_18" x1="-96.91" y1="618.81" x2="-95.3" y2="618.81" gradientTransform="matrix(-171.12, 0, 0, 171.12, -16188.03, -105637.37)" gradientUnits="userSpaceOnUse"><stop offset="0" stop-color="#218a99"/><stop offset="0.05" stop-color="#228b96"/><stop offset="0.66" stop-color="#289d77"/><stop offset="1" stop-color="#2aa36b"/></linearGradient><clipPath id="clip-path-5" transform="translate(-0.57 -12.61)"><rect class="cls-1" x="252.33" y="177.28" width="104.01" height="159.15"/></clipPath><clipPath id="clip-path-6" transform="translate(-0.57 -12.61)"><path class="cls-1" d="M310.88,75.49c-3.25,16.92-13.18,61-32.08,85.56C248,201,230.54,263.17,254.84,292.58c0,0,116-31.52,59.36-217.26a1.66,1.66,0,0,0-1.63-1.21,1.68,1.68,0,0,0-1.69,1.38"/></clipPath><linearGradient id="Degradado_sin_nombre_11" x1="-96.81" y1="618.49" x2="-95.19" y2="618.49" gradientTransform="matrix(-163.73, 0, 0, 163.73, -15459.27, -101079.02)" gradientUnits="userSpaceOnUse"><stop offset="0" stop-color="#41add9"/><stop offset="1" stop-color="#003d4c"/></linearGradient><clipPath id="clip-path-8" transform="translate(-0.57 -12.61)"><rect class="cls-1" x="260.75" y="98.88" width="52.17" height="174.18"/></clipPath><clipPath id="clip-path-9" transform="translate(-0.57 -12.61)"><path class="cls-1" d="M120,79a13.94,13.94,0,0,0-13,13.57c-1.09,44.09-4.63,196.15-2.94,250A10.82,10.82,0,0,0,114.47,353c28.23.92,109.46,3.27,155.64,1.33a18.22,18.22,0,0,0,17.47-17.82c1-46.27,3.07-176.42-2-236A14.86,14.86,0,0,0,272.28,87c-26.36-2.64-90.13-8.54-132.94-8.54-7.13,0-13.68.16-19.37.53"/></clipPath><linearGradient id="Degradado_sin_nombre_22" x1="-98.28" y1="615.82" x2="-96.66" y2="615.82" gradientTransform="matrix(114.79, 0, 0, -114.79, 11384.32, 70895.49)" gradientUnits="userSpaceOnUse"><stop offset="0" stop-color="#283581"/><stop offset="1" stop-color="#1f1c3f"/></linearGradient><clipPath id="clip-path-10" transform="translate(-0.57 -12.61)"><path class="cls-1" d="M129.91,94.63a12.13,12.13,0,0,0-11.48,11.6c-1.55,36.11-6.41,156.21-4.87,200.63A12.57,12.57,0,0,0,125.39,319c26.7,1.56,95.18,5,134.34,1.87a14.14,14.14,0,0,0,13-13.33c2-36.83,7.68-148.67,6.2-192.59a13.89,13.89,0,0,0-12.65-13.35C241,99.31,181,94.3,144.13,94.3c-5.27,0-10.06.1-14.22.33"/></clipPath><linearGradient id="Degradado_sin_nombre_13" x1="-97.57" y1="618.42" x2="-95.95" y2="618.42" gradientTransform="matrix(-375.74, 0, 0, 375.74, -36384.97, -232151.75)" gradientUnits="userSpaceOnUse"><stop offset="0" stop-color="#003d4c"/><stop offset="0.03" stop-color="#0b4f63"/><stop offset="0.09" stop-color="#196882"/><stop offset="0.16" stop-color="#267e9e"/><stop offset="0.23" stop-color="#308fb4"/><stop offset="0.32" stop-color="#389dc5"/><stop offset="0.43" stop-color="#3da6d0"/><stop offset="0.58" stop-color="#40acd7"/><stop offset="1" stop-color="#41add9"/><stop offset="1" stop-color="#41add9"/></linearGradient><clipPath id="clip-path-12" transform="translate(-0.57 -12.61)"><rect class="cls-1" x="176.73" y="84.05" width="38.94" height="6.98"/></clipPath><clipPath id="clip-path-13" transform="translate(-0.57 -12.61)"><rect class="cls-1" x="131.71" y="234.24" width="123.44" height="17.29"/></clipPath><clipPath id="clip-path-14" transform="translate(-0.57 -12.61)"><rect class="cls-1" x="132.02" y="269.05" width="123.44" height="17.29"/></clipPath><clipPath id="clip-path-15" transform="translate(-0.57 -12.61)"><path class="cls-1" d="M97.39,206.85c-.49,1.49-4.18,1.68-4.54,4.61a3.37,3.37,0,0,1-2.83,3c-3.77.58-9.58,2.53-10.5,9.05-.71,5,1.83,6.87,4.5,7.52a3.76,3.76,0,0,1,2.87,4.36c-.38,1.89.19,4.08,3.48,5.81C97.75,245,105.11,232,105.11,232l1.51-22.82-5.28-5.78s-3.34,1.62-4,3.48"/></clipPath><linearGradient id="Degradado_sin_nombre_22-2" x1="-97.04" y1="616.95" x2="-95.42" y2="616.95" gradientTransform="translate(-5555.61 39235.57) rotate(-180) scale(63.23)" xlink:href="#Degradado_sin_nombre_22"/><clipPath id="clip-path-16" transform="translate(-0.57 -12.61)"><path class="cls-1" d="M109.23,225.67s3.42,9.69,6,10.8c0,0,21.55-17.92,27.08-35.21l-.89-3.3s-14.72,23.22-32.24,27.71"/></clipPath><linearGradient id="Degradado_sin_nombre_26" x1="-103.74" y1="614.48" x2="-102.12" y2="614.48" gradientTransform="matrix(38.34, 0, 0, -38.34, 4083.34, 23776.47)" gradientUnits="userSpaceOnUse"><stop offset="0" stop-color="#f8b771"/><stop offset="1" stop-color="#ee785d"/></linearGradient><clipPath id="clip-path-18" transform="translate(-0.57 -12.61)"><path class="cls-1" d="M100,304.19l-2.25,4.21a8.52,8.52,0,0,0-1,4.72L99.07,341l-1.78,2.43.22,1.33,10.87,6.39-4.27-6.92a7.78,7.78,0,0,1-1.16-4.43c.44-9.94,2.9-34.78,2.9-34.78l-.74-4.31Z"/></clipPath><linearGradient id="Degradado_sin_nombre_26-2" x1="-101.53" y1="617.36" x2="-99.92" y2="617.36" gradientTransform="translate(-53911.02 -8501.53) rotate(-90) scale(87.49)" xlink:href="#Degradado_sin_nombre_26"/><clipPath id="clip-path-20" transform="translate(-0.57 -12.61)"><path class="cls-1" d="M82.81,302.72c-6,4.58-7.57,9.56-9,14.14s-3.9,17.78-5.07,20.69c-1,2.44-3.63,7.82-4.46,9.5a1.52,1.52,0,0,0,.06,1.49,2.54,2.54,0,0,0,2.36,1.07c2.64,0,3.59-.74,3.64-1.51a59.86,59.86,0,0,1,3.13-11.9c2.29-6.23,16.7-33.48,16.7-33.48a4.24,4.24,0,0,0-3.38-1.79,6.62,6.62,0,0,0-4,1.79"/></clipPath><linearGradient id="Degradado_sin_nombre_26-3" x1="-101.53" y1="617.24" x2="-99.92" y2="617.24" gradientTransform="translate(-53933.96 -8500.59) rotate(-90) scale(87.5)" xlink:href="#Degradado_sin_nombre_26"/><clipPath id="clip-path-21" transform="translate(-0.57 -12.61)"><path class="cls-1" d="M93.63,233.47s9.41,8.88,5.7,24.59a14.43,14.43,0,0,0,12.91,1.25s6.54-17.24,7.26-20.69c1.23-5.9-9.1-13.43-9.1-13.43s-10.83,2.59-16.77,8.28"/></clipPath><linearGradient id="Degradado_sin_nombre_18-2" x1="-102.23" y1="616.66" x2="-100.62" y2="616.66" gradientTransform="matrix(58.87, 0, 0, -58.87, 6129.29, 36547.53)" xlink:href="#Degradado_sin_nombre_18"/><clipPath id="clip-path-22" transform="translate(-0.57 -12.61)"><path class="cls-1" d="M91.08,265.83c-1.51,4.55-2.83,26.83-8.73,37.27,0,0,14.24,3.75,23.5,1.88,0,0,5.87-30.89,6.81-35.69a25.68,25.68,0,0,0-.42-10,14.43,14.43,0,0,1-12.91-1.25s-6.73,3.23-8.25,7.77"/></clipPath><linearGradient id="Degradado_sin_nombre_19" x1="-92.39" y1="622.96" x2="-90.78" y2="622.96" gradientTransform="matrix(0, 35.19, -35.19, 0, 22022.98, 3487)" gradientUnits="userSpaceOnUse"><stop offset="0" stop-color="#e74128"/><stop offset="0.19" stop-color="#e84527"/><stop offset="0.38" stop-color="#ea5122"/><stop offset="0.56" stop-color="#ed651b"/><stop offset="0.75" stop-color="#f18111"/><stop offset="0.94" stop-color="#f7a604"/><stop offset="1" stop-color="#f9b200"/><stop offset="1" stop-color="#f9b200"/></linearGradient><clipPath id="clip-path-23" transform="translate(-0.57 -12.61)"><path class="cls-1" d="M103.64,214.81l-3,13.54c-.29,1.19.8,1,2,.77,2-.37,4.53-1.14,5.38-2.68a1.45,1.45,0,0,0,.16-.51l1.3-9.38a1.7,1.7,0,0,0-1-1.78l-2.51-1.1a1.64,1.64,0,0,0-.68-.15,1.7,1.7,0,0,0-1.65,1.29"/></clipPath><linearGradient id="Degradado_sin_nombre_26-4" x1="-87.71" y1="617.77" x2="-86.1" y2="617.77" gradientTransform="matrix(-23.78, 0, 0, 23.78, -1956.4, -14466.38)" xlink:href="#Degradado_sin_nombre_26"/><clipPath id="clip-path-24" transform="translate(-0.57 -12.61)"><path class="cls-1" d="M102.33,212.77a10.68,10.68,0,0,0,8.53,4.8c2.31.12,4.56-1.86,3.17-7.39s-4.6-7.71-4.6-7.71a3.05,3.05,0,0,0-1.64-.48c-3.89,0-8,7.31-5.46,10.78"/></clipPath><linearGradient id="Degradado_sin_nombre_26-5" x1="-107.25" y1="613.77" x2="-105.64" y2="613.77" gradientTransform="matrix(0, -24.96, 24.96, 0, -15213.53, -2453.72)" xlink:href="#Degradado_sin_nombre_26"/><clipPath id="clip-path-25" transform="translate(-0.57 -12.61)"><path class="cls-1" d="M100.38,201.79c-2.75,5-3.74,8.5-1.44,11.6s4,.44,4,.44-1.06-2.68-.18-3.83,2,.67,2,.67l.46-.13s-1.18-7.93,5.42-6.71l1.33,1.38s3.23-3.63-.34-6.37a7.39,7.39,0,0,0-4.49-1.59c-2.54,0-5.09,1.45-6.79,4.54"/></clipPath><linearGradient id="Degradado_sin_nombre_22-3" x1="-97.37" y1="616.18" x2="-95.76" y2="616.18" gradientTransform="translate(-5580.12 39194.53) rotate(-180) scale(63.27)" xlink:href="#Degradado_sin_nombre_22"/><clipPath id="clip-path-26" transform="translate(-0.57 -12.61)"><path class="cls-1" d="M101.67,208.3c-2.09,1.17.76,3.81,1.9,4.71l.77-1.79s-.44-3.13-2-3.13a1.54,1.54,0,0,0-.72.21"/></clipPath><linearGradient id="Degradado_sin_nombre_26-6" x1="-107.25" y1="613.66" x2="-105.64" y2="613.66" gradientTransform="translate(-15216.06 -2451.81) rotate(-90) scale(24.96)" xlink:href="#Degradado_sin_nombre_26"/><clipPath id="clip-path-27" transform="translate(-0.57 -12.61)"><path class="cls-1" d="M140.18,196.14c-.68.6-1,4.48-1.12,5.37.57,2,2.36,1.71,2.31,1.23a3.74,3.74,0,0,0,3.1-1c.78-.72,1.64-1.67,2.29-2.4a3.77,3.77,0,0,0,1-2.64,13,13,0,0,0-.88-3.36l3.23-2.18a1.32,1.32,0,0,0,.22-1.83,72.42,72.42,0,0,0-10.1,6.83"/></clipPath><linearGradient id="Degradado_sin_nombre_26-7" x1="-103.74" y1="614.47" x2="-102.12" y2="614.47" gradientTransform="matrix(38.34, 0, 0, -38.34, 4074.61, 23756.78)" xlink:href="#Degradado_sin_nombre_26"/><clipPath id="clip-path-28" transform="translate(-0.57 -12.61)"><path class="cls-1" d="M142.26,196.16,141,198.08l.44.29,1.16-1.81,2.62-1.39a.51.51,0,0,1,.16.33c0,.21-.12.46-.41.76a26.9,26.9,0,0,0-2.36,4.7l.49.2a25.6,25.6,0,0,1,2.26-4.54,1.56,1.56,0,0,0,.55-1.15,1.17,1.17,0,0,0-.48-.83l-.14-.11Z"/></clipPath><linearGradient id="Degradado_sin_nombre_26-8" x1="-114.55" y1="616.67" x2="-112.94" y2="616.67" gradientTransform="matrix(14.55, 0, 0, -14.55, 1814.9, 9169.97)" xlink:href="#Degradado_sin_nombre_26"/><clipPath id="clip-path-29" transform="translate(-0.57 -12.61)"><path class="cls-1" d="M93.63,233.47s-16.74,34.25-22.8,37.24a69.52,69.52,0,0,0-9.92,1.78,1,1,0,0,0,0,1.89c2.62.71,7,1.31,11-.85,0,0-2.14,3.2-.89,4.44,0,0,2.85-3.37,3.92-4.44S93,254,100.21,242.73c.59-.9.18-3.6-.22-4.6-.8-2-2.42-4.94-5-4.94a3.74,3.74,0,0,0-1.38.28"/></clipPath><linearGradient id="Degradado_sin_nombre_26-9" x1="-99.93" y1="607.39" x2="-98.32" y2="607.39" gradientTransform="matrix(24.96, 0, 0, -24.96, 2553.75, 15402.22)" xlink:href="#Degradado_sin_nombre_26"/><clipPath id="clip-path-31" transform="translate(-0.57 -12.61)"><rect class="cls-1" x="146.01" y="113.17" width="100.39" height="100.39"/></clipPath></defs><title>principal-bienvenida</title><g class="cls-2"><path class="cls-3" d="M324.88,309.88a111.66,111.66,0,0,1-17.2,14.48C251.57,364.62,185.17,352.89,171.06,350c-20.84-4.23-61.12-12.41-90.24-46.66C36.76,251.55,43.63,169.92,77.8,116c6.25-9.86,39.27-64.56,106.38-73.33,40.62-5.31,88,5.4,122.25,34.12,72,60.3,66.84,182.1,18.45,233.05" transform="translate(-0.57 -12.61)"/><g class="cls-4"><g class="cls-5"><path class="cls-6" d="M324.88,309.88a111.66,111.66,0,0,1-17.2,14.48C251.57,364.62,185.17,352.89,171.06,350c-20.84-4.23-61.12-12.41-90.24-46.66C36.76,251.55,43.63,169.92,77.8,116c6.25-9.86,39.27-64.56,106.38-73.33,40.62-5.31,88,5.4,122.25,34.12,72,60.3,66.84,182.1,18.45,233.05" transform="translate(-0.57 -12.61)"/></g></g></g><g class="cls-7"><rect class="cls-8" x="173.25" y="148.53" width="244.5" height="212.41" transform="translate(-58.24 407.9) rotate(-65.91)"/></g><g class="cls-2"><g class="cls-9"><g class="cls-10"><path class="cls-3" d="M356.33,177.67c-.16.55-.34,1-.5,1.47l-.53,1.4-1.07,2.79c-.73,1.85-1.49,3.69-2.24,5.53-1.53,3.68-3.11,7.34-4.71,11-3.23,7.28-6.66,14.48-10.19,21.62s-7.25,14.19-11.12,21.15-7.85,13.88-12.05,20.65a384.64,384.64,0,0,1-27.51,39.11c-5.07,6.16-10.3,12.19-15.88,17.9a205.54,205.54,0,0,1-17.69,16.08.32.32,0,0,1-.44,0,.32.32,0,0,1,0-.44h0a232.46,232.46,0,0,0,17.16-16.5c5.44-5.77,10.55-11.85,15.49-18.06s9.63-12.61,14.17-19.12,8.81-13.21,13-19.93c8.41-13.48,16.09-27.4,23.38-41.51q5.44-10.6,10.48-21.42,2.54-5.39,4.95-10.84l2.37-5.47,1.16-2.75.56-1.37c.17-.46.37-.94.51-1.35l0-.06a.31.31,0,0,1,.6.18" transform="translate(-0.57 -12.61)"/></g></g></g><g class="cls-11"><rect class="cls-12" x="183.18" y="99.51" width="234.96" height="167.66" transform="translate(78.94 444.79) rotate(-82.47)"/></g><g class="cls-2"><g class="cls-9"><g class="cls-13"><path class="cls-3" d="M312.92,99.18c0,.55,0,1-.06,1.48l-.1,1.43-.22,2.85c-.16,1.9-.36,3.79-.55,5.69q-.6,5.69-1.32,11.35c-1,7.56-2.15,15.09-3.44,22.6s-2.77,15-4.42,22.44-3.42,14.86-5.43,22.22a366.17,366.17,0,0,1-14.55,43.37c-3,7-6.13,14-9.68,20.75a197.31,197.31,0,0,1-11.85,19.57.29.29,0,0,1-.42.08.31.31,0,0,1-.09-.42h0A223.36,223.36,0,0,0,272,252.78C275.44,246,278.46,239,281.3,232s5.39-14.2,7.78-21.4,4.47-14.52,6.52-21.83c4-14.66,7.28-29.52,10.11-44.45q2.12-11.2,3.78-22.49c.56-3.76,1.1-7.53,1.58-11.3l.68-5.66.32-2.83.14-1.42c0-.46.08-1,.1-1.37v-.07a.31.31,0,0,1,.61,0" transform="translate(-0.57 -12.61)"/></g></g></g><g class="cls-14"><rect class="cls-15" x="101.74" y="65.82" width="188.34" height="277.87"/></g><g class="cls-16"><rect class="cls-17" x="53.88" y="72.09" width="284.64" height="274.1" transform="translate(-89.98 222.3) rotate(-51.98)"/></g><g class="cls-2"><g class="cls-18"><g class="cls-19"><path class="cls-3" d="M176.73,86.67h0a2.55,2.55,0,0,0,2.41,2.54c6.66.35,25.45,1.33,33.85,1.82a2.54,2.54,0,0,0,2.64-3l-.06-.28a2.54,2.54,0,0,0-2.26-2c-5.68-.52-22.8-2-34.15-1.56a2.54,2.54,0,0,0-2.43,2.55" transform="translate(-0.57 -12.61)"/></g></g><g class="cls-20"><g class="cls-21"><path class="cls-3" d="M251.43,236.42l-113.52-2.18c-3.7-.07-6.48,4.24-6.18,9.57s4.16,6.88,7.79,6.83l111,.89c2.27,0,4.3-3.38,4.55-7.5s-1.39-7.57-3.69-7.61" transform="translate(-0.57 -12.61)"/></g></g><g class="cls-20"><g class="cls-22"><path class="cls-3" d="M251.74,271.23l-113.52-2.18c-3.7-.07-6.49,4.24-6.18,9.58s4.16,6.88,7.79,6.83l111,.89c2.27,0,4.3-3.38,4.55-7.5s-1.39-7.57-3.69-7.62" transform="translate(-0.57 -12.61)"/></g></g><path class="cls-6" d="M203,241.18l-61.61-.64c-2,0-3.51,1.13-3.35,2.57s2.27,1.85,4.23,1.83l60.27.3a2.49,2.49,0,0,0,2.47-2,1.89,1.89,0,0,0-2-2" transform="translate(-0.57 -12.61)"/></g><g class="cls-23"><rect class="cls-24" x="68.08" y="203.19" width="49.27" height="42.03" transform="translate(-150.45 208.02) rotate(-66.69)"/></g><g class="cls-25"><rect class="cls-26" x="100.44" y="192.35" width="50.72" height="49.74" transform="translate(-123.63 171.76) rotate(-52.41)"/></g><g class="cls-2"><path class="cls-27" d="M71,346.49l-.47,3.92a1.62,1.62,0,0,1-1.43,1.41,25.26,25.26,0,0,1-5.25.08,1.37,1.37,0,0,1-1.16-1.79A14.17,14.17,0,0,1,65.34,345h4.35A1.33,1.33,0,0,1,71,346.49" transform="translate(-0.57 -12.61)"/></g><g class="cls-28"><rect class="cls-29" x="94.48" y="300.26" width="16.04" height="51.26" transform="matrix(1, -0.09, 0.09, 1, -27.98, -2.69)"/></g><g class="cls-2"><path class="cls-27" d="M109.1,352.12h-3.47a2.11,2.11,0,0,1-1.66-.81c-1.08-1.41-3.32-4.14-4.39-4.21-1.44-.1-1.26,5-1.26,5h-.81l-1-6.36a3.75,3.75,0,0,1,2-3.93,5.32,5.32,0,0,0,2.12,3.51c1.78,1.07,7.27,4.93,7.27,4.93a4.93,4.93,0,0,1,1.41,0,.92.92,0,0,1-.17,1.82" transform="translate(-0.57 -12.61)"/></g><g class="cls-30"><rect class="cls-31" x="62.07" y="299.9" width="30.18" height="50.73" transform="translate(-28.02 -4.85) rotate(-4.89)"/></g><g class="cls-32"><rect class="cls-33" x="84.8" y="223.83" width="44.76" height="39.71" transform="translate(-159.6 230.92) rotate(-66.23)"/></g><g class="cls-34"><rect class="cls-35" x="71.79" y="253.48" width="52.36" height="57.94" transform="matrix(0.85, -0.53, 0.53, 0.85, -135.38, 82.25)"/></g><g class="cls-36"><rect class="cls-37" x="96.51" y="216.12" width="16.88" height="10.82" transform="translate(-126.69 290.76) rotate(-84.15)"/></g><g class="cls-38"><rect class="cls-39" x="97.74" y="199.95" width="19.73" height="19.78" transform="translate(-60.52 31.28) rotate(-18.13)"/></g><g class="cls-40"><rect class="cls-41" x="92.74" y="193.76" width="26.39" height="26.22" transform="translate(-125.12 164.33) rotate(-55.48)"/></g><g class="cls-42"><rect class="cls-43" x="98.94" y="207.48" width="6.05" height="6.15" transform="translate(-61.02 29.56) rotate(-18.13)"/></g><g class="cls-44"><rect class="cls-45" x="135.75" y="187.35" width="18.57" height="18.16" transform="translate(-99.66 178.9) rotate(-52.41)"/></g><g class="cls-46"><rect class="cls-47" x="139.85" y="194.91" width="7.28" height="5.86" transform="translate(-73.85 298.11) rotate(-81.55)"/></g><g class="cls-48"><rect class="cls-49" x="59.39" y="220.58" width="40.83" height="44.78"/></g><g class="cls-2"><g class="cls-20"><g class="cls-50"><path class="cls-3" d="M246.39,163.36a50.19,50.19,0,1,1-50.19-50.19,50.2,50.2,0,0,1,50.19,50.19" transform="translate(-0.57 -12.61)"/></g></g><path class="cls-51" d="M212.48,145.29c0,8.57-6.94,17.81-15.5,17.81s-15.51-9.24-15.51-17.81,6.94-14.64,15.51-14.64,15.5,6.08,15.5,14.64" transform="translate(-0.57 -12.61)"/><path class="cls-51" d="M177.73,196.07h37.86a9.15,9.15,0,0,0,8.72-6.37l2-6.36A9.15,9.15,0,0,0,220.82,172c-15.41-5.64-31.33-4.91-47.65.52a9.13,9.13,0,0,0-5.85,11.06l1.57,5.78a9.16,9.16,0,0,0,8.84,6.76" transform="translate(-0.57 -12.61)"/><path class="cls-6" d="M149.1,277.13a4.14,4.14,0,0,1-4.16,4A4,4,0,0,1,141,277a4.14,4.14,0,0,1,4.16-4,3.94,3.94,0,0,1,3.9,4.09" transform="translate(-0.57 -12.61)"/><path class="cls-6" d="M164.18,277.31a4.12,4.12,0,0,1-4.12,4,3.93,3.93,0,0,1-3.88-4.08,4.11,4.11,0,0,1,4.14-4,3.92,3.92,0,0,1,3.86,4.07" transform="translate(-0.57 -12.61)"/><path class="cls-6" d="M180.35,277.57a4.14,4.14,0,0,1-4.16,4,3.93,3.93,0,0,1-3.9-4.09,4.13,4.13,0,0,1,4.16-4,3.93,3.93,0,0,1,3.9,4.08" transform="translate(-0.57 -12.61)"/><path class="cls-6" d="M212.33,278a4.11,4.11,0,0,1-4.13,4,3.91,3.91,0,0,1-3.87-4.07,4.11,4.11,0,0,1,4.13-4,3.92,3.92,0,0,1,3.87,4.07" transform="translate(-0.57 -12.61)"/><path class="cls-6" d="M228.5,278.22a4.16,4.16,0,0,1-4.16,4,4,4,0,0,1-3.91-4.09,4.15,4.15,0,0,1,4.17-4,4,4,0,0,1,3.9,4.09" transform="translate(-0.57 -12.61)"/><path class="cls-6" d="M195.43,277.75a4.12,4.12,0,0,1-4.12,4,3.93,3.93,0,0,1-3.88-4.07,4.11,4.11,0,0,1,4.13-4,3.92,3.92,0,0,1,3.87,4.07" transform="translate(-0.57 -12.61)"/></g></svg>