<svg id="Capa_7" data-name="Capa 7" xmlns="http://www.w3.org/2000/svg" xmlns:xlink="http://www.w3.org/1999/xlink" viewBox="0 0 306.33 247.94"><defs><style>.cls-1{clip-path:url(#clip-path);}.cls-2{fill:#003d4c;}</style><clipPath id="clip-path" transform="translate(-51.67 -72.32)"/></defs><title>twitter-logo</title><g class="cls-1"><path class="cls-2" d="M358,101.72c-19,8.8-33.7,8.8-33.7,8.8,20.52-13.19,26.37-35.17,26.37-35.17C333.09,87.06,317,90,309.63,90c-5.85-2.94-23.44-19-52.76-17.59,0,0-66,4.39-55.7,77.68H199.7s-79.14-1.46-129-66c0,0-29.31,44,19.06,85,0,0-17.59,0-27.85-8.78,0,0-2.93,48.37,49.83,63a60.82,60.82,0,0,1-27.85,1.46s10.26,39.58,58.63,42.5c0,0-30.78,30.78-90.87,26.39,0,0,38.11,26.39,99.66,26.39,0,0,74.76,5.85,131.93-60.11,0,0,45.43-49.83,44-127.52,13.17-5.85,30.76-30.78,30.76-30.78" transform="translate(-51.67 -72.32)"/></g></svg>